<?xml version="1.0" standalone="no"?>
<!DOCTYPE svg PUBLIC "-//W3C//DTD SVG 20010904//EN"
 "http://www.w3.org/TR/2001/REC-SVG-20010904/DTD/svg10.dtd">
<svg version="1.0" xmlns="http://www.w3.org/2000/svg"
 width="768.000000pt" height="768.000000pt" viewBox="0 0 768.000000 768.000000"
 preserveAspectRatio="xMidYMid meet">

<g transform="translate(0.000000,768.000000) scale(0.100000,-0.100000)"
fill="#000000" stroke="none">
<path d="M3293 6050 c-297 -42 -556 -159 -772 -349 -44 -40 -80 -75 -78 -79 1
-4 -1 -7 -4 -7 -11 0 -49 -37 -49 -47 0 -5 5 -6 12 -2 7 4 2 -7 -11 -24 -34
-48 -76 -149 -97 -231 -18 -70 -19 -72 -25 -40 -4 23 -7 7 -8 -48 -2 -122 48
-253 120 -319 l21 -19 -49 -44 c-41 -37 -42 -39 -8 -14 68 50 101 67 121 59
16 -6 10 -13 -35 -39 -78 -46 -148 -114 -132 -130 29 -29 137 -6 243 51 3 1
25 -32 47 -75 39 -73 40 -79 24 -91 -125 -88 -197 -149 -293 -248 -63 -66
-126 -135 -139 -154 -14 -21 -7 -15 19 15 94 110 258 259 359 326 57 38 108
69 114 69 5 0 -33 -32 -84 -71 -284 -217 -510 -499 -618 -769 -126 -319 -158
-757 -76 -1040 35 -116 75 -219 142 -356 89 -183 288 -420 455 -542 31 -23 59
-46 62 -51 4 -5 -14 -40 -40 -78 -45 -66 -38 -62 19 11 15 20 33 36 40 35 9 0
9 -2 0 -6 -7 -2 -13 -9 -13 -14 0 -5 -31 -51 -68 -101 -37 -51 -81 -114 -98
-141 -17 -28 -34 -45 -42 -42 -9 3 -12 -1 -10 -12 4 -23 67 -65 92 -61 12 2
61 53 116 119 52 64 109 132 127 152 l32 37 103 -44 c189 -81 320 -116 508
-136 58 -6 126 -16 151 -21 54 -12 126 -20 187 -21 23 -1 42 -6 42 -12 0 -6 5
-4 10 4 6 9 13 11 18 5 4 -5 26 -10 49 -10 22 0 39 -3 36 -8 -6 -9 28 -4 46 7
11 7 13 5 8 -6 -5 -14 -1 -15 24 -8 24 7 29 6 29 -8 0 -15 2 -15 10 -2 9 13
11 13 20 0 6 -10 10 -11 10 -2 0 6 7 12 15 12 8 0 15 -4 15 -8 0 -10 30 -9 46
1 6 3 14 3 18 0 9 -9 116 -12 116 -3 0 4 7 7 15 7 8 0 15 -4 15 -9 0 -4 25 -6
55 -3 39 3 54 1 49 -6 -4 -8 0 -8 14 0 38 20 71 13 108 -24 27 -27 41 -34 57
-29 33 9 85 43 90 57 2 7 27 13 63 14 32 1 75 5 94 9 19 4 47 8 63 8 15 1 27
3 27 6 0 6 24 9 68 11 12 1 22 5 22 10 0 5 11 4 24 -1 15 -5 27 -5 35 3 8 8
11 7 11 -3 1 -12 4 -11 14 3 11 14 19 15 39 8 20 -8 28 -6 41 8 9 10 13 21 9
26 -5 4 3 2 15 -4 13 -7 26 -10 30 -7 3 3 2 6 -2 6 -11 0 22 31 37 35 38 9 57
18 57 27 0 6 -7 7 -16 4 -14 -5 -15 -4 -4 9 7 9 19 14 27 11 8 -3 11 -1 8 4
-3 6 1 10 9 10 14 0 17 5 15 26 0 4 10 12 23 18 13 7 22 19 20 27 -1 9 12 22
29 30 28 13 30 17 16 30 -14 14 -12 17 20 28 26 10 32 16 22 22 -8 5 -16 3
-21 -4 -4 -6 -10 -8 -14 -5 -3 4 1 14 9 23 9 9 18 11 22 6 3 -6 12 -8 21 -4
13 5 12 7 -2 18 -15 11 -14 14 11 37 15 14 25 32 23 39 -3 8 7 25 21 39 15 14
25 34 23 44 -2 10 0 16 5 13 5 -3 10 8 11 25 2 17 -3 35 -10 40 -11 6 -10 8 0
8 7 0 10 5 6 11 -4 7 0 9 12 5 11 -3 26 -1 34 4 12 7 8 10 -15 10 -28 1 -29 2
-12 15 21 16 30 75 11 75 -6 0 -14 7 -18 15 -4 12 -2 13 12 7 19 -10 42 -5 42
9 0 5 -7 9 -15 9 -8 0 -15 5 -15 10 0 6 5 10 11 10 5 0 7 5 4 10 -3 6 -1 10 5
10 7 0 7 7 -1 23 -11 20 -11 21 5 8 15 -12 17 -12 14 0 -4 17 -30 39 -40 33
-5 -3 -8 0 -8 6 0 8 7 9 18 5 9 -4 28 -9 42 -11 24 -4 24 -4 -2 7 -16 6 -28
14 -29 17 -5 42 -4 52 5 52 6 1 -1 8 -16 16 -16 8 -28 17 -28 20 0 3 5 2 12
-2 8 -5 9 -2 5 11 -6 14 -3 16 13 12 11 -3 20 -1 20 4 0 5 -4 9 -9 9 -13 0
-10 50 3 50 6 0 3 5 -7 11 -14 8 -17 18 -13 37 4 15 3 23 -1 17 -10 -12 -43
-16 -43 -5 0 4 7 11 17 14 14 6 14 9 -5 27 -22 20 -29 39 -14 39 4 0 13 9 20
21 12 19 12 20 -10 14 -13 -4 -20 -4 -15 1 4 4 -5 14 -20 21 l-28 13 27 -5
c29 -6 47 9 23 19 -8 3 -15 13 -15 21 0 9 5 13 11 10 6 -4 5 2 -3 14 -7 12
-17 21 -21 21 -5 0 -20 9 -34 20 -26 20 -26 20 -3 20 18 0 21 4 17 21 -3 12 0
22 8 25 22 9 25 32 7 45 -9 8 -14 9 -10 5 8 -10 -9 -36 -23 -36 -5 0 -9 7 -9
15 0 9 -6 12 -17 9 -14 -5 -15 -4 -4 4 8 6 20 8 28 5 7 -3 13 0 13 6 0 7 -7
14 -15 17 -8 4 -12 10 -9 15 3 5 10 7 15 4 5 -4 9 -2 9 4 0 6 -12 14 -26 17
-21 5 -24 11 -20 30 4 16 0 29 -14 41 -19 19 -19 19 17 15 l36 -5 -21 23 c-19
20 -25 22 -47 12 -32 -15 -32 -7 0 22 14 13 25 26 25 30 0 11 -18 6 -34 -10
-19 -18 -20 -15 -6 20 10 26 9 27 -29 30 -8 1 -16 7 -19 14 -2 7 2 10 12 6 9
-4 16 -1 16 6 0 9 -10 11 -32 6 -20 -3 -28 -3 -20 3 8 4 14 12 15 17 1 5 7 8
13 6 6 -1 14 3 17 10 3 9 -5 13 -29 12 -23 -1 -34 3 -34 12 0 12 -23 19 -51
16 -3 -1 -6 5 -6 13 0 8 5 11 11 8 18 -11 68 -14 61 -3 -3 6 -12 10 -19 10 -8
0 -19 7 -26 15 -7 8 -16 13 -20 10 -5 -3 -11 -1 -15 5 -4 6 -11 8 -16 5 -5 -4
-9 -1 -9 6 0 6 8 9 20 6 11 -3 18 -1 14 4 -3 5 -11 9 -19 9 -23 0 -26 28 -2
33 19 4 18 4 -5 6 -15 0 -29 5 -33 11 -3 5 -13 7 -23 4 -13 -5 -14 -4 -3 4 11
8 10 11 -5 15 -10 3 1 4 26 2 25 -3 39 -2 32 1 -6 3 -10 9 -7 13 2 5 -7 6 -22
3 -17 -3 -24 -1 -19 6 3 6 1 14 -5 18 -7 4 -9 3 -5 -4 3 -6 2 -13 -3 -16 -5
-4 -12 8 -16 26 -11 54 -75 238 -110 313 -109 238 -341 529 -534 670 -45 33
-81 62 -81 66 0 3 21 43 46 87 l45 80 56 -24 c69 -31 137 -41 158 -24 27 22
18 62 -26 106 l-40 41 30 46 c79 116 110 286 77 417 -47 183 -149 306 -395
471 -262 177 -504 256 -806 264 -82 2 -178 0 -212 -5z m462 -170 c243 -53 491
-187 690 -372 120 -112 176 -251 155 -384 -12 -71 -17 -84 -62 -154 l-29 -45
37 40 c34 37 35 38 21 9 -32 -63 -32 -63 -199 0 -135 50 -198 47 -198 -10 0
-34 33 -68 102 -104 93 -49 91 -45 58 -98 -16 -26 -40 -60 -53 -76 l-23 -28
-99 50 c-175 87 -356 140 -542 158 l-72 6 4 57 c2 31 4 62 4 69 1 8 21 12 66
12 75 0 120 18 128 52 8 30 -16 66 -51 75 -43 13 -362 8 -408 -5 -51 -15 -78
-43 -69 -72 12 -37 51 -53 148 -59 l92 -6 3 -39 c7 -78 3 -82 -95 -90 -180
-14 -366 -63 -532 -142 -52 -25 -100 -43 -105 -41 -17 7 -92 160 -80 164 34
11 141 92 152 115 23 49 -14 84 -83 79 -16 -1 -75 -23 -129 -48 l-100 -46 -29
34 c-51 59 -70 115 -75 214 -7 150 37 248 160 360 179 162 458 298 688 335 41
6 82 13 90 15 8 2 87 2 175 1 117 -3 187 -10 260 -26z m860 -576 c24 -92 16
-108 -9 -19 -12 44 -25 91 -29 105 -8 25 -8 25 8 -2 8 -14 22 -53 30 -84z
m-1257 -211 c2 -9 -8 -13 -32 -13 -20 0 -36 4 -36 9 0 22 60 25 68 4z m159
-190 c-2 -21 -4 -4 -4 37 0 41 2 58 4 38 2 -21 2 -55 0 -75z m713 57 c0 -5 -7
-10 -15 -10 -8 0 -15 5 -15 10 0 6 7 10 15 10 8 0 15 -4 15 -10z m118 -36 c13
-9 21 -18 18 -21 -6 -6 -96 34 -96 43 0 9 52 -6 78 -22z m-1723 -204 c19 -38
35 -74 35 -80 0 -20 -16 -10 -26 18 -6 15 -21 51 -33 80 -11 28 -19 52 -16 52
3 0 21 -31 40 -70z m1719 -5 c-25 -41 -49 -75 -54 -75 -5 0 11 30 36 68 24 37
44 70 44 75 0 4 4 7 10 7 5 0 -11 -34 -36 -75z m-664 -19 c302 -46 627 -226
842 -467 275 -310 418 -661 422 -1033 1 -180 -6 -316 -18 -309 -5 3 -7 -6 -4
-21 3 -14 2 -29 -2 -31 -5 -3 -7 -13 -6 -23 2 -9 0 -19 -4 -22 -4 -3 -17 -39
-29 -80 -147 -487 -581 -887 -1093 -1007 -102 -24 -132 -27 -308 -27 -210 0
-295 12 -467 69 -118 38 -327 147 -423 219 -107 80 -269 248 -335 346 -206
309 -307 675 -276 997 36 368 173 673 413 923 250 260 551 415 918 473 62 10
284 6 370 -7z m1454 -1245 c4 -5 -3 -7 -14 -4 -23 6 -26 13 -6 13 8 0 17 -4
20 -9z m383 -943 c-3 -8 -6 -5 -6 6 -1 11 2 17 5 13 3 -3 4 -12 1 -19z m-42
-458 c3 -6 -1 -7 -9 -4 -18 7 -21 14 -7 14 6 0 13 -4 16 -10z"/>
<path d="M3472 4363 c3 -179 5 -198 21 -201 16 -3 17 11 17 197 0 195 -1 201
-20 201 -20 0 -20 -5 -18 -197z"/>
<path d="M2802 4363 c-8 -3 -5 -11 10 -24 13 -10 20 -18 16 -19 -4 0 11 -32
33 -71 22 -39 38 -73 35 -76 -6 -6 21 -63 30 -63 2 0 -1 10 -7 23 -9 17 -9 20
1 10 7 -6 14 -23 15 -36 3 -25 22 -67 30 -67 2 0 2 7 -1 15 -4 8 -1 15 4 15 6
0 9 -10 7 -21 -3 -12 -1 -28 4 -36 6 -12 9 -12 20 1 11 13 -3 42 -80 178 -105
184 -100 177 -117 171z m163 -272 c3 -5 1 -12 -4 -15 -5 -3 -11 1 -15 9 -6 16
9 21 19 6z"/>
<path d="M3536 4338 c-3 -18 -10 -127 -16 -243 -6 -115 -20 -331 -31 -480 -10
-148 -19 -291 -19 -317 0 -27 -4 -48 -9 -48 -5 0 -99 68 -208 152 -327 251
-489 372 -516 387 -22 12 -28 11 -47 -7 l-22 -20 124 -99 c69 -54 235 -185
371 -292 139 -110 248 -203 251 -215 8 -30 -15 -59 -108 -134 -309 -248 -385
-313 -380 -327 4 -8 11 -15 16 -15 5 0 123 90 261 200 164 130 255 196 261
190 6 -6 28 -10 49 -10 31 0 46 7 74 35 30 30 34 40 32 77 -3 41 -3 43 66 96
135 103 159 126 144 139 -11 9 -35 -4 -114 -63 -55 -41 -102 -74 -105 -74 -3
0 7 177 22 393 14 215 28 448 30 517 l3 125 -47 3 c-42 3 -47 6 -50 29 -5 39
-26 40 -32 1z"/>
<path d="M4059 4200 c-81 -142 -94 -172 -82 -181 20 -17 29 -6 118 151 42 74
84 143 93 153 16 18 15 20 -3 33 -10 8 -21 14 -24 14 -3 -1 -49 -77 -102 -170z"/>
<path d="M4329 4113 c-13 -16 -12 -17 4 -4 16 13 21 21 13 21 -2 0 -10 -8 -17
-17z"/>
<path d="M4419 4023 c-13 -16 -12 -17 4 -4 9 7 17 15 17 17 0 8 -8 3 -21 -13z"/>
<path d="M4530 3799 c-266 -168 -254 -159 -238 -176 14 -14 32 -5 179 84 154
94 185 121 162 143 -4 5 -51 -18 -103 -51z"/>
<path d="M2433 3793 c3 -5 27 -22 52 -38 29 -19 44 -34 40 -44 -4 -10 -2 -11
8 -3 10 8 21 6 45 -8 18 -11 32 -24 32 -30 0 -5 -16 0 -35 11 -54 32 -41 16
19 -24 40 -26 56 -33 65 -24 6 6 11 14 11 17 0 4 -51 38 -112 75 -138 83 -132
80 -125 68z"/>
<path d="M4660 3680 c-8 -5 -10 -10 -5 -10 6 0 17 5 25 10 8 5 11 10 5 10 -5
0 -17 -5 -25 -10z"/>
<path d="M4693 3550 c-34 -14 -28 -21 7 -9 17 6 30 13 30 15 0 6 -12 4 -37 -6z"/>
<path d="M4750 3430 c-23 -7 -23 -8 -3 -9 12 -1 25 4 28 9 3 6 5 10 3 9 -2 -1
-14 -5 -28 -9z"/>
<path d="M4738 3293 c12 -2 30 -2 40 0 9 3 -1 5 -23 4 -22 0 -30 -2 -17 -4z"/>
<path d="M2144 3169 c-15 -25 20 -29 207 -27 175 3 194 5 197 21 3 16 -11 17
-197 17 -133 0 -202 -4 -207 -11z"/>
<path d="M4430 3161 c0 -27 25 -31 218 -31 l172 0 0 25 0 25 -195 0 c-184 0
-195 -1 -195 -19z"/>
<path d="M4753 3003 c9 -2 23 -2 30 0 6 3 -1 5 -18 5 -16 0 -22 -2 -12 -5z"/>
<path d="M4730 2880 c34 -11 60 -11 35 0 -11 5 -29 8 -40 8 -16 0 -15 -2 5 -8z"/>
<path d="M4690 2760 c8 -5 20 -10 25 -10 6 0 3 5 -5 10 -8 5 -19 10 -25 10 -5
0 -3 -5 5 -10z"/>
<path d="M2600 2684 c-19 -13 -88 -56 -153 -96 -116 -69 -139 -90 -120 -109
14 -14 328 182 328 206 0 27 -16 27 -55 -1z"/>
<path d="M4296 2694 c-4 -9 -5 -18 -4 -19 2 -1 75 -50 162 -108 122 -81 163
-104 173 -95 7 6 13 16 13 23 0 11 -312 215 -330 215 -4 0 -11 -7 -14 -16z"/>
<path d="M4505 2360 c10 -11 20 -20 23 -20 3 0 -3 9 -13 20 -10 11 -20 20 -23
20 -3 0 3 -9 13 -20z"/>
<path d="M2944 2288 c-21 -35 -69 -110 -107 -167 -64 -98 -68 -106 -51 -118
26 -19 36 -6 142 172 65 108 87 154 80 163 -17 21 -25 14 -64 -50z"/>
<path d="M3974 2336 c-6 -16 166 -335 181 -335 6 -1 16 3 23 8 11 6 -8 47 -78
175 -87 155 -113 187 -126 152z"/>
<path d="M4391 2254 c13 -17 26 -30 28 -27 3 2 -8 16 -24 31 l-28 27 24 -31z"/>
<path d="M3450 2010 c0 -163 2 -191 15 -197 9 -3 17 -4 19 -2 2 2 7 91 11 197
l8 192 -27 0 -26 0 0 -190z"/>
<path d="M4269 2165 c5 -11 17 -29 26 -40 l16 -20 -10 20 c-5 11 -17 29 -26
40 l-16 20 10 -20z"/>
<path d="M3870 1954 c0 -10 5 -26 10 -34 8 -11 9 -7 4 15 -8 37 -14 45 -14 19z"/>
<path d="M3181 1904 c0 -11 3 -14 6 -6 3 7 2 16 -1 19 -3 4 -6 -2 -5 -13z"/>
<path d="M3742 1900 c0 -14 2 -19 5 -12 2 6 2 18 0 25 -3 6 -5 1 -5 -13z"/>
<path d="M3613 1870 c0 -25 2 -35 4 -22 2 12 2 32 0 45 -2 12 -4 2 -4 -23z"/>
<path d="M3312 1875 c0 -16 2 -22 5 -12 2 9 2 23 0 30 -3 6 -5 -1 -5 -18z"/>
<path d="M2359 5528 c-17 -24 -18 -29 -6 -19 18 14 42 51 33 51 -3 0 -15 -15
-27 -32z"/>
<path d="M2293 5415 c-3 -9 -3 -18 -1 -21 3 -3 8 4 11 16 6 23 -1 27 -10 5z"/>
<path d="M2271 5334 c0 -11 3 -14 6 -6 3 7 2 16 -1 19 -3 4 -6 -2 -5 -13z"/>
<path d="M5200 3440 c-9 -6 -10 -10 -3 -10 6 0 15 5 18 10 8 12 4 12 -15 0z"/>
<path d="M5397 3046 c-4 -10 -1 -13 9 -9 8 3 22 -1 31 -8 15 -13 15 -12 2 9
-16 25 -34 29 -42 8z"/>
<path d="M5460 2880 c-8 -5 -10 -10 -5 -10 6 0 17 5 25 10 8 5 11 10 5 10 -5
0 -17 -5 -25 -10z"/>
<path d="M5510 2059 c0 -5 5 -7 10 -4 6 3 10 8 10 11 0 2 -4 4 -10 4 -5 0 -10
-5 -10 -11z"/>
<path d="M5433 1855 c0 -8 4 -12 9 -9 4 3 8 9 8 15 0 5 -4 9 -8 9 -5 0 -9 -7
-9 -15z"/>
<path d="M2420 1570 c-12 -16 -19 -30 -16 -30 2 0 14 14 26 30 12 17 19 30 16
30 -2 0 -14 -13 -26 -30z"/>
</g>
</svg>
